<svg xmlns="http://www.w3.org/2000/svg" viewBox="0 0 377 189">
<g transform="translate(140.50 0) scale(1.5)">
<path d="M32 5 L55.4 18.5 V45.5 L32 59 L8.6 45.5 V18.5 Z" fill="#101D33" stroke="#101D33" stroke-width="3" stroke-linejoin="round"/>
<path d="M32 12 L48 48 H16 Z M32 26.5 L40.2 48 H23.8 Z" fill="#FAF8F2" fill-rule="evenodd"/>
<path d="M21.2 33.2 C24.5 33.8 27.8 35.9 29.9 38.7 C32.5 33.4 39.0 26.4 47.2 21.4 C41.0 27.7 35.4 34.8 32.7 42.1 C31.9 44.0 29.5 44.3 28.4 42.6 C26.5 39.6 23.9 36.3 21.2 33.2 Z" fill="#F2C63C"/>
</g>
<g transform="translate(16.04 155.89)">
<path transform="translate(0.00 0) scale(0.07862 -0.07862)" d="M14 0L238 660L474 660L698 0L522 0L364 534L348 534L190 0ZM147 124L147 232L589 232L589 124Z" fill="#101D33"/>
<path transform="translate(52.21 0) scale(0.07862 -0.07862)" d="M255 -14Q189 -14 139.5 19.5Q90 53 62 115.5Q34 178 34 265Q34 345 58 407Q82 469 129.5 504.5Q177 540 247 540Q297 540 331.5 522Q366 504 389 468Q412 432 426 377L451 377Q444 411 438 441.5Q432 472 428.5 498.5Q425 525 425 545L425 720L587 720L587 258L587 0L455 0L453 156L431 156Q420 96 396.5 58.5Q373 21 337.5 3.5Q302 -14 255 -14ZM313 116Q344 116 365.5 129.5Q387 143 400 164Q413 185 419 209Q425 233 425 254L425 275Q425 294 420 313Q415 332 405.5 350Q396 368 382 382Q368 396 349.5 404Q331 412 309 412Q276 412 252.5 394Q229 376 216.5 343Q204 310 204 265Q204 220 217 186.5Q230 153 255 134.5Q280 116 313 116Z" fill="#101D33"/>
<path transform="translate(100.48 0) scale(0.07862 -0.07862)" d="M62 0L62 341L62 528L189 528L191 373L211 373Q225 430 248 467.5Q271 505 304 523.5Q337 542 381 542Q427 542 457.5 522.5Q488 503 506 465.5Q524 428 530 373L547 373Q563 432 589 469.5Q615 507 651 524.5Q687 542 729 542Q774 542 807.5 524.5Q841 507 863.5 472.5Q886 438 897 386.5Q908 335 908 267L908 0L746 0L746 247Q746 300 737.5 335Q729 370 711 387.5Q693 405 665 405Q633 405 610.5 384Q588 363 576 325.5Q564 288 564 241L564 0L406 0L406 244Q406 299 396.5 334Q387 369 368.5 387Q350 405 322 405Q290 405 268 384Q246 363 234.5 325.5Q223 288 223 241L223 0Z" fill="#101D33"/>
<path transform="translate(173.44 0) scale(0.07862 -0.07862)" d="M62 0L62 528L223 528L223 0ZM143 602Q97 602 72.5 621.5Q48 641 48 677Q48 715 72.5 734.5Q97 754 143 754Q190 754 214.5 734.5Q239 715 239 678Q239 641 214.5 621.5Q190 602 143 602Z" fill="#101D33"/>
<path transform="translate(193.18 0) scale(0.07862 -0.07862)" d="M30 193L30 339L329 339L329 193Z" fill="#F2C63C"/>
<path transform="translate(218.65 0) scale(0.07862 -0.07862)" d="M208 0L208 660L370 660L370 0ZM16 526L16 660L564 660L564 526Z" fill="#101D33"/>
<path transform="translate(256.16 0) scale(0.07862 -0.07862)" d="M313 -14Q247 -14 195 3.5Q143 21 106.5 55Q70 89 51 139Q32 189 32 254Q32 317 50.5 370Q69 423 103.5 461.5Q138 500 188.5 521Q239 542 302 542Q366 542 414.5 521.5Q463 501 494.5 461Q526 421 541 363.5Q556 306 551 232L138 229L138 313L459 316L402 277Q409 327 396 358.5Q383 390 358 404.5Q333 419 304 419Q269 419 242.5 400Q216 381 201 345Q186 309 186 257Q186 175 221.5 138Q257 101 312 101Q339 101 357 108.5Q375 116 386.5 127.5Q398 139 404.5 153Q411 167 415 180L555 150Q547 113 529.5 83Q512 53 482.5 31Q453 9 411.5 -2.5Q370 -14 313 -14Z" fill="#101D33"/>
<path transform="translate(300.03 0) scale(0.07862 -0.07862)" d="M311 -14Q243 -14 191 5Q139 24 104 59.5Q69 95 50.5 145Q32 195 32 257Q32 321 50.5 373Q69 425 104 463Q139 501 190 521.5Q241 542 307 542Q373 542 421 521Q469 500 499.5 462Q530 424 541 374L392 324Q389 357 376 378Q363 399 342.5 408.5Q322 418 298 418Q273 418 254 408Q235 398 222 378Q209 358 202 329.5Q195 301 195 264Q195 211 208.5 175.5Q222 140 248.5 122Q275 104 313 104Q352 104 374 120Q396 136 406 159.5Q416 183 418 206L558 175Q554 138 538.5 103.5Q523 69 493 42.5Q463 16 418.5 1Q374 -14 311 -14Z" fill="#101D33"/>
</g>
<g transform="translate(16.04 178.43)">
<path transform="translate(0.00 0) scale(0.02129 -0.02129)" d="M246 0L246 631L51 631L51 731L549 731L549 631L354 631L354 0Z" fill="#101D33" opacity="0.62"/>
<path transform="translate(13.84 0) scale(0.02129 -0.02129)" d="M300 -10Q195 -10 138 47.5Q81 105 81 204L81 730L189 730L189 204Q189 149 216.5 117Q244 85 300 85Q355 85 383 117Q411 149 411 204L411 730L519 730L519 204Q519 105 462 47.5Q405 -10 300 -10Z" fill="#101D33" opacity="0.62"/>
<path transform="translate(41.52 0) scale(0.02129 -0.02129)" d="M84 0L84 730L323 730Q394 730 446.5 703Q499 676 527.5 626.5Q556 577 556 510Q556 444 527 394Q498 344 446 317Q394 290 323 290L192 290L192 0ZM192 387L323 387Q379 387 412.5 420.5Q446 454 446 510Q446 567 412.5 600Q379 633 323 633L192 633Z" fill="#101D33" opacity="0.62"/>
<path transform="translate(55.36 0) scale(0.02129 -0.02129)" d="M84 0L84 730L313 730Q382 730 433 703.5Q484 677 512.5 629Q541 581 541 516Q541 443 503.5 389.5Q466 336 402 314L551 0L428 0L295 300L192 300L192 0ZM192 395L313 395Q367 395 399 427.5Q431 460 431 514Q431 570 399 602Q367 634 313 634L192 634Z" fill="#101D33" opacity="0.62"/>
<path transform="translate(69.20 0) scale(0.02129 -0.02129)" d="M94 0L94 730L523 730L523 634L200 634L200 427L488 427L488 332L200 332L200 96L523 96L523 0Z" fill="#101D33" opacity="0.62"/>
<path transform="translate(83.04 0) scale(0.02129 -0.02129)" d="M84 0L84 730L323 730Q394 730 446.5 703Q499 676 527.5 626.5Q556 577 556 510Q556 444 527 394Q498 344 446 317Q394 290 323 290L192 290L192 0ZM192 387L323 387Q379 387 412.5 420.5Q446 454 446 510Q446 567 412.5 600Q379 633 323 633L192 633Z" fill="#101D33" opacity="0.62"/>
<path transform="translate(96.88 0) scale(0.02129 -0.02129)" d="M43 0L229 730L371 730L557 0L448 0L404 185L197 185L153 0ZM217 274L383 274L333 485Q320 541 311.5 582.5Q303 624 300 639Q297 624 289 582.5Q281 541 267 486Z" fill="#101D33" opacity="0.62"/>
<path transform="translate(110.72 0) scale(0.02129 -0.02129)" d="M84 0L84 730L313 730Q382 730 433 703.5Q484 677 512.5 629Q541 581 541 516Q541 443 503.5 389.5Q466 336 402 314L551 0L428 0L295 300L192 300L192 0ZM192 395L313 395Q367 395 399 427.5Q431 460 431 514Q431 570 399 602Q367 634 313 634L192 634Z" fill="#101D33" opacity="0.62"/>
<path transform="translate(124.56 0) scale(0.02129 -0.02129)" d="M43 0L229 730L371 730L557 0L448 0L404 185L197 185L153 0ZM217 274L383 274L333 485Q320 541 311.5 582.5Q303 624 300 639Q297 624 289 582.5Q281 541 267 486Z" fill="#101D33" opacity="0.62"/>
<path transform="translate(138.40 0) scale(0.02129 -0.02129)" d="M304 -10Q236 -10 185.5 15.5Q135 41 107.5 89.5Q80 138 80 203L80 527Q80 593 107.5 641Q135 689 185.5 714.5Q236 740 304 740Q372 740 422 714Q472 688 499.5 640.5Q527 593 527 527L419 527Q419 584 389 614Q359 644 304 644Q249 644 218.5 614Q188 584 188 528L188 203Q188 147 218.5 116.5Q249 86 304 86Q359 86 389 116.5Q419 147 419 203L527 203Q527 138 499.5 90Q472 42 422 16Q372 -10 304 -10Z" fill="#101D33" opacity="0.62"/>
<path transform="translate(152.23 0) scale(0.02129 -0.02129)" d="M98 0L98 96L245 96L245 634L98 634L98 730L502 730L502 634L355 634L355 96L502 96L502 0Z" fill="#101D33" opacity="0.62"/>
<path transform="translate(166.07 0) scale(0.02129 -0.02129)" d="M300 -10Q232 -10 182.5 15.5Q133 41 106.5 89.5Q80 138 80 203L80 527Q80 593 106.5 641Q133 689 182.5 714.5Q232 740 300 740Q368 740 417.5 714.5Q467 689 493.5 641Q520 593 520 528L520 203Q520 138 493.5 89.5Q467 41 417.5 15.5Q368 -10 300 -10ZM300 86Q355 86 383.5 116.5Q412 147 412 203L412 527Q412 584 383.5 614Q355 644 300 644Q246 644 217 614Q188 584 188 527L188 203Q188 147 217 116.5Q246 86 300 86ZM233 810L339 950L455 950L342 810Z" fill="#101D33" opacity="0.62"/>
<path transform="translate(179.91 0) scale(0.02129 -0.02129)" d="M81 0L81 730L217 730L430 123Q428 152 425 192Q422 232 420.5 275Q419 318 419 353L419 730L519 730L519 0L383 0L171 607Q173 581 175.5 542Q178 503 179.5 461Q181 419 181 383L181 0Z" fill="#101D33" opacity="0.62"/>
<path transform="translate(193.75 0) scale(0.02129 -0.02129)" d="M158 -160L238 151L382 151L252 -160Z" fill="#101D33" opacity="0.62"/>
<path transform="translate(221.43 0) scale(0.02129 -0.02129)" d="M246 0L246 631L51 631L51 731L549 731L549 631L354 631L354 0Z" fill="#101D33" opacity="0.62"/>
<path transform="translate(235.27 0) scale(0.02129 -0.02129)" d="M300 -10Q195 -10 138 47.5Q81 105 81 204L81 730L189 730L189 204Q189 149 216.5 117Q244 85 300 85Q355 85 383 117Q411 149 411 204L411 730L519 730L519 204Q519 105 462 47.5Q405 -10 300 -10Z" fill="#101D33" opacity="0.62"/>
<path transform="translate(262.95 0) scale(0.02129 -0.02129)" d="M88 0L88 731L529 731L529 631L193 631L193 413L503 413L503 313L195 313L195 0Z" fill="#101D33" opacity="0.62"/>
<path transform="translate(276.79 0) scale(0.02129 -0.02129)" d="M300 -10Q195 -10 138 47.5Q81 105 81 204L81 730L189 730L189 204Q189 149 216.5 117Q244 85 300 85Q355 85 383 117Q411 149 411 204L411 730L519 730L519 204Q519 105 462 47.5Q405 -10 300 -10Z" fill="#101D33" opacity="0.62"/>
<path transform="translate(290.63 0) scale(0.02129 -0.02129)" d="M246 0L246 631L51 631L51 731L549 731L549 631L354 631L354 0Z" fill="#101D33" opacity="0.62"/>
<path transform="translate(304.47 0) scale(0.02129 -0.02129)" d="M300 -10Q195 -10 138 47.5Q81 105 81 204L81 730L189 730L189 204Q189 149 216.5 117Q244 85 300 85Q355 85 383 117Q411 149 411 204L411 730L519 730L519 204Q519 105 462 47.5Q405 -10 300 -10Z" fill="#101D33" opacity="0.62"/>
<path transform="translate(318.31 0) scale(0.02129 -0.02129)" d="M84 0L84 730L313 730Q382 730 433 703.5Q484 677 512.5 629Q541 581 541 516Q541 443 503.5 389.5Q466 336 402 314L551 0L428 0L295 300L192 300L192 0ZM192 395L313 395Q367 395 399 427.5Q431 460 431 514Q431 570 399 602Q367 634 313 634L192 634Z" fill="#101D33" opacity="0.62"/>
<path transform="translate(332.15 0) scale(0.02129 -0.02129)" d="M300 -10Q232 -10 182.5 15.5Q133 41 106.5 89.5Q80 138 80 203L80 527Q80 593 106.5 641Q133 689 182.5 714.5Q232 740 300 740Q368 740 417.5 714.5Q467 689 493.5 641Q520 593 520 528L520 203Q520 138 493.5 89.5Q467 41 417.5 15.5Q368 -10 300 -10ZM300 86Q355 86 383.5 116.5Q412 147 412 203L412 527Q412 584 383.5 614Q355 644 300 644Q246 644 217 614Q188 584 188 527L188 203Q188 147 217 116.5Q246 86 300 86Z" fill="#101D33" opacity="0.62"/>
</g>
</svg>
